<svg xmlns="http://www.w3.org/2000/svg" version="1.1" xmlns:xlink="http://www.w3.org/1999/xlink" xmlns:svgjs="http://svgjs.dev/svgjs" width="1440" height="560" preserveAspectRatio="none" viewBox="0 0 1440 560"><g mask="url(&quot;#SvgjsMask1149&quot;)" fill="none"><rect width="1440" height="560" x="0" y="0" fill="url(&quot;#SvgjsLinearGradient1150&quot;)"></rect><path d="M1488 560L0 560 L0 336.27Q8.02 272.29, 72 280.31Q114.94 251.25, 144 294.2Q189.46 267.66, 216 313.12Q268.88 294, 288 346.87Q333.1 319.97, 360 365.06Q401.7 286.76, 480 328.46Q503.16 279.62, 552 302.77Q580.07 258.84, 624 286.91Q683.33 274.25, 696 333.58Q723.97 289.55, 768 317.52Q818.77 296.29, 840 347.07Q868.38 255.45, 960 283.83Q1009.15 260.99, 1032 310.14Q1094.3 300.44, 1104 362.73Q1108.09 294.82, 1176 298.91Q1230.13 233.04, 1296 287.16Q1380.97 252.13, 1416 337.1Q1463.07 312.17, 1488 359.23z" fill="rgba(113, 114, 116, 1)"></path><path d="M1464 560L0 560 L0 442.36Q25 347.36, 120 372.35Q165.74 346.09, 192 391.82Q245.31 373.13, 264 426.44Q271.23 361.67, 336 368.9Q365.1 326, 408 355.09Q468.06 343.15, 480 403.21Q549.29 352.5, 600 421.78Q620.54 370.32, 672 390.86Q691.78 338.64, 744 358.43Q786.1 328.53, 816 370.63Q911.93 346.56, 936 442.5Q951.46 337.96, 1056 353.42Q1123.07 300.49, 1176 367.55Q1219.71 339.26, 1248 382.98Q1290.91 353.89, 1320 396.8Q1374.79 379.59, 1392 434.37Q1393.27 363.64, 1464 364.92z" fill="rgba(166, 166, 166, 1)"></path><path d="M1464 560L0 560 L0 467.8Q19.25 415.05, 72 434.3Q138.61 380.91, 192 447.52Q256.8 440.32, 264 505.12Q300.46 421.58, 384 458.04Q408.66 410.7, 456 435.35Q550.5 409.86, 576 504.36Q630.08 438.44, 696 492.52Q726.71 403.23, 816 433.94Q862.24 408.18, 888 454.41Q948.12 442.53, 960 502.65Q980.88 403.53, 1080 424.41Q1154.26 378.68, 1200 452.94Q1261.26 442.19, 1272 503.45Q1300.14 411.6, 1392 439.74Q1439.41 415.15, 1464 462.56z" fill="rgba(204, 205, 206, 1)"></path><path d="M1560 560L0 560 L0 582.31Q29.32 539.63, 72 568.95Q84.85 509.8, 144 522.64Q197.46 456.1, 264 509.55Q356.98 482.53, 384 575.51Q403.87 475.38, 504 495.25Q575.73 446.98, 624 518.7Q691.07 465.77, 744 532.83Q816.62 485.45, 864 558.07Q904.35 478.42, 984 518.78Q1031.84 494.62, 1056 542.46Q1072.05 486.51, 1128 502.56Q1199.57 454.13, 1248 525.69Q1332.16 489.85, 1368 574.01Q1370.08 504.09, 1440 506.16Q1505.2 451.36, 1560 516.56z" fill="white"></path></g><defs><mask id="SvgjsMask1149"><rect width="1440" height="560" fill="#ffffff"></rect></mask><linearGradient x1="15.28%" y1="-39.29%" x2="84.72%" y2="139.29%" gradientUnits="userSpaceOnUse" id="SvgjsLinearGradient1150"><stop stop-color="rgba(71, 14, 14, 1)" offset="0"></stop><stop stop-color="rgba(160, 143, 2, 1)" offset="1"></stop></linearGradient></defs></svg>
